Coordinates
version=1
nRows=15
nColumns=63
inDegrees=yes

Units are S.I. units (second, meters, Newtons, ...)
If the header above contains a line with 'inDegrees', this indicates whether rotational values are in degrees (yes) or radians (no).

endheader
time	pelvis_tilt	pelvis_list	pelvis_rotation	pelvis_tx	pelvis_ty	pelvis_tz	hip_flexion_r	hip_adduction_r	hip_rotation_r	knee_angle_r	knee_angle_r_beta	ankle_angle_r	subtalar_angle_r	mtp_angle_r	hip_flexion_l	hip_adduction_l	hip_rotation_l	knee_angle_l	knee_angle_l_beta	ankle_angle_l	subtalar_angle_l	mtp_angle_l	L5_S1_Flex_Ext	L5_S1_Lat_Bending	L5_S1_axial_rotation	L4_L5_Flex_Ext	L4_L5_Lat_Bending	L4_L5_axial_rotation	L3_L4_Flex_Ext	L3_L4_Lat_Bending	L3_L4_axial_rotation	L2_L3_Flex_Ext	L2_L3_Lat_Bending	L2_L3_axial_rotation	L1_L2_Flex_Ext	L1_L2_Lat_Bending	L1_L2_axial_rotation	L1_T12_Flex_Ext	L1_T12_Lat_Bending	L1_T12_axial_rotation	Abs_r3	Abs_r2	Abs_r1	Abs_t1	Abs_t2	neck_flexion	neck_bending	neck_rotation	arm_flex_r	arm_add_r	arm_rot_r	elbow_flex_r	pro_sup_r	wrist_flex_r	wrist_dev_r	arm_flex_l	arm_add_l	arm_rot_l	elbow_flex_l	pro_sup_l	wrist_flex_l	wrist_dev_l
3.389831	5.952809	-4.494838	94.650377	-0.116416	0.787737	0.659319	3.232618	2.280892	-5.663705	7.493087	0.130779	24.671084	6.266834	0.000000	2.763337	-3.054888	6.681034	3.964428	0.069192	26.315231	-6.483821	0.000000	-0.029410	0.634652	0.187474	-0.054617	0.844087	0.199191	-0.048317	1.543093	0.199191	-0.033612	1.543093	0.164040	-0.027310	1.294183	0.152323	-0.016805	0.983076	0.140605	-0.210071	7.179313	1.042674	0.000000	0.000000	24.895564	-1.630592	0.132214	6.239295	-15.359865	84.697897	13.837755	25.984486	-0.378501	-5.657114	13.591511	-6.861913	96.069438	17.029311	46.456304	-11.052157	-3.739609
3.406780	6.026621	-4.356137	95.034199	-0.116988	0.787879	0.658780	2.915640	2.411631	-5.618460	7.189619	0.125483	24.533864	5.687845	0.000000	2.641526	-3.138754	6.737412	3.958176	0.069083	26.660510	-5.946186	0.000000	-0.032147	0.651149	0.134697	-0.059700	0.866028	0.143116	-0.052814	1.583204	0.143116	-0.036740	1.583204	0.117860	-0.029851	1.327823	0.109442	-0.018369	1.008630	0.101023	-0.229621	7.365930	0.749146	0.000000	0.000000	24.868894	-1.782175	0.319291	6.097354	-15.313164	86.972570	13.292021	25.220129	-0.587926	-5.666643	13.291111	-7.393096	88.602176	18.724226	52.143956	-12.333916	-3.372373
3.423729	6.089519	-4.237678	95.370581	-0.117575	0.787967	0.658267	2.639554	2.517142	-5.634030	6.914156	0.120675	24.470686	5.290104	0.000000	2.527110	-3.201859	6.907628	3.936301	0.068701	26.899372	-5.651590	0.000000	-0.032175	0.667385	0.088076	-0.059752	0.887622	0.093580	-0.052860	1.622681	0.093580	-0.036772	1.622681	0.077066	-0.029877	1.360932	0.071561	-0.018385	1.033780	0.066057	-0.229821	7.549596	0.489850	0.000000	0.000000	24.860660	-1.975322	0.473751	6.051189	-15.264813	89.909093	12.671155	23.786056	-0.713155	-5.770960	13.056003	-7.720691	83.894458	19.805374	55.767188	-13.176205	-3.109892
3.440678	6.140315	-4.142185	95.637460	-0.118143	0.788006	0.657820	2.412972	2.595782	-5.688238	6.672271	0.116453	24.472713	5.075460	0.000000	2.429677	-3.246398	7.056312	3.915596	0.068340	27.066621	-5.445852	0.000000	-0.030273	0.682991	0.050692	-0.056220	0.908379	0.053860	-0.049736	1.660625	0.053860	-0.034599	1.660625	0.044355	-0.028112	1.392756	0.041187	-0.017298	1.057954	0.038019	-0.216239	7.726135	0.281933	0.000000	0.000000	24.864299	-2.184031	0.612746	6.110685	-15.179518	93.824462	11.863602	21.646490	-0.686967	-5.977561	12.901337	-7.844796	81.970582	20.278718	57.350985	-13.579940	-2.939750
3.457627	6.174512	-4.074180	95.831383	-0.118681	0.787997	0.657481	2.251286	2.635843	-5.863605	6.485676	0.113196	24.552225	5.149909	0.000000	2.354452	-3.266694	7.216893	3.891221	0.067915	27.155783	-5.381924	0.000000	-0.026874	0.697327	0.023116	-0.049908	0.927445	0.024561	-0.044152	1.695482	0.024561	-0.030715	1.695482	0.020227	-0.024955	1.421990	0.018782	-0.015356	1.080160	0.017337	-0.191960	7.888306	0.128567	0.000000	0.000000	24.883319	-2.393744	0.753496	6.290867	-15.046508	98.814782	10.840510	18.780606	-0.487410	-6.278918	12.853116	-7.767023	82.704510	20.191292	56.926130	-13.558404	-2.867105
3.474576	6.192528	-4.033503	95.947715	-0.119174	0.787959	0.657241	2.158441	2.639801	-6.145375	6.364634	0.111084	24.697003	5.472366	0.000000	2.300915	-3.262937	7.415364	3.865854	0.067472	27.156982	-5.503282	0.000000	-0.021870	0.710086	0.006778	-0.040614	0.944414	0.007201	-0.035930	1.726502	0.007201	-0.024995	1.726502	0.005930	-0.020308	1.448006	0.005507	-0.012496	1.099923	0.005083	-0.156214	8.032630	0.037695	0.000000	0.000000	24.904115	-2.603163	0.890986	6.592961	-14.867329	104.795851	9.616819	15.204201	-0.110289	-6.679732	12.903559	-7.478101	86.131876	19.511211	54.477506	-13.104016	-2.930654
3.491525	6.205261	-4.019325	96.004886	-0.119625	0.787907	0.657111	2.121408	2.632125	-6.393671	6.278349	0.109578	24.872699	5.844381	0.000000	2.274187	-3.248753	7.619262	3.842469	0.067064	27.109271	-5.729143	0.000000	-0.015715	0.722148	-0.001560	-0.029185	0.960457	-0.001657	-0.025819	1.755832	-0.001657	-0.017961	1.755832	-0.001365	-0.014593	1.472605	-0.001267	-0.008980	1.118608	-0.001170	-0.112253	8.169088	-0.008675	0.000000	0.000000	24.930219	-2.804117	1.016891	7.021760	-14.631756	111.872131	8.152711	10.891342	0.503928	-7.213880	13.066010	-6.985643	92.004821	18.300715	50.004059	-12.262959	-3.215096
3.508475	6.209727	-4.027263	96.010824	-0.120033	0.787868	0.657076	2.133283	2.604614	-6.697209	6.228637	0.108710	25.085923	6.370395	0.000000	2.265690	-3.220600	7.893594	3.811545	0.066524	26.987469	-6.140128	0.000000	-0.008721	0.732978	-0.001412	-0.016195	0.974861	-0.001500	-0.014327	1.782163	-0.001500	-0.009967	1.782163	-0.001235	-0.008098	1.494689	-0.001147	-0.004983	1.135383	-0.001059	-0.062290	8.291595	-0.007852	0.000000	0.000000	24.953287	-3.002395	1.129708	7.569422	-14.346057	119.890470	6.486258	5.857954	1.322920	-7.884119	13.343789	-6.283892	100.282323	16.567857	43.483677	-11.042027	-3.757355
3.525424	6.205458	-4.056387	95.965653	-0.120370	0.787862	0.657146	2.195923	2.557663	-7.072197	6.224724	0.108642	25.338014	7.069954	0.000000	2.274744	-3.178176	8.262295	3.772948	0.065850	26.776421	-6.785528	0.000000	-0.001355	0.741911	0.009363	-0.002515	0.986741	0.009948	-0.002225	1.803882	0.009948	-0.001548	1.803882	0.008193	-0.001258	1.512904	0.007608	-0.000774	1.149220	0.007022	-0.009675	8.392643	0.052075	0.000000	0.000000	24.971838	-3.173634	1.228136	8.232025	-14.012996	128.711442	4.651694	0.105391	2.329245	-8.697443	13.737110	-5.359718	111.110371	14.264584	34.912070	-9.392756	-4.556524
3.542373	6.220278	-4.101566	95.896835	-0.120654	0.787754	0.657269	2.288251	2.528336	-7.450759	6.243189	0.108964	25.616523	7.807128	0.000000	2.303336	-3.156975	8.622455	3.742156	0.065313	26.573408	-7.454618	0.000000	0.005597	0.752276	0.027420	0.010395	1.000528	0.029133	0.009196	1.829085	0.029133	0.006397	1.829085	0.023992	0.005198	1.534042	0.022279	0.003198	1.165276	0.020565	0.039980	8.509902	0.152500	0.000000	0.000000	25.031547	-3.345244	1.303849	8.397091	-13.958961	132.212309	3.929860	-1.409128	2.754565	-8.703707	13.959387	-4.769975	117.868768	12.808238	29.543154	-8.150827	-4.935852
3.559322	6.240394	-4.158406	95.812683	-0.120860	0.787653	0.657437	2.402818	2.502807	-7.876010	6.287900	0.109745	25.894489	8.609919	0.000000	2.349704	-3.147004	8.890559	3.728872	0.065081	26.357773	-8.039028	0.000000	0.012268	0.761525	0.046808	0.022782	1.012828	0.049734	0.020155	1.851572	0.049734	0.014021	1.851572	0.040957	0.011392	1.552902	0.038032	0.007010	1.179602	0.035106	0.087627	8.614522	0.260335	0.000000	0.000000	25.097448	-3.485844	1.361213	8.430063	-13.980930	133.833860	3.578963	-1.608350	3.050261	-8.501439	14.153880	-4.192854	124.524506	11.369187	24.231125	-6.899686	-5.349643
3.576271	6.259908	-4.224017	95.710203	-0.120966	0.787562	0.657633	2.530330	2.476700	-8.339604	6.354668	0.110910	26.150580	9.460901	0.000000	2.410759	-3.144531	9.044427	3.739170	0.065261	26.138392	-8.514255	0.000000	0.018156	0.768553	0.067526	0.033717	1.022175	0.071747	0.029828	1.868659	0.071747	0.020750	1.868659	0.059086	0.016859	1.567232	0.054865	0.010374	1.190488	0.050645	0.129685	8.694020	0.375562	0.000000	0.000000	25.181616	-3.587868	1.393830	8.305688	-14.084193	133.242437	3.657540	-0.343199	3.186236	-8.088501	14.302627	-3.646927	130.922307	9.981671	19.172909	-5.656963	-5.785943
3.593220	6.270478	-4.299641	95.578004	-0.120967	0.787482	0.657843	2.682089	2.438792	-8.833235	6.475422	0.113017	26.387957	10.339305	0.000000	2.480635	-3.138792	9.102881	3.759211	0.065611	25.907281	-8.912944	0.000000	0.023875	0.772133	0.092114	0.044338	1.026937	0.097871	0.039224	1.877364	0.097871	0.027286	1.877364	0.080600	0.022170	1.574534	0.074843	0.013642	1.196034	0.069086	0.170535	8.734523	0.512311	0.000000	0.000000	25.279334	-3.649124	1.366572	7.994981	-14.280097	130.142464	4.220899	2.596312	3.131395	-7.444849	14.387427	-3.152131	136.826798	8.705508	14.582975	-4.442403	-6.204479
3.610169	6.250372	-4.369274	95.495624	-0.120823	0.787502	0.658041	2.808868	2.387084	-9.275800	6.596976	0.115139	26.529914	11.009822	0.000000	2.538570	-3.109678	9.324178	3.754739	0.065533	25.588979	-9.464943	0.000000	0.029095	0.767709	0.101066	0.054033	1.021054	0.107382	0.047800	1.866609	0.107382	0.033253	1.866609	0.088432	0.027018	1.565513	0.082116	0.016625	1.189182	0.075799	0.207824	8.684483	0.562096	0.000000	0.000000	25.344598	-3.624706	1.328371	8.048892	-14.247022	130.336612	4.151919	2.518681	3.494068	-7.420346	14.501884	-2.727745	142.868987	7.464348	10.046066	-3.334281	-6.780758
3.627119	6.213980	-4.432783	95.411131	-0.120574	0.787580	0.658235	2.926752	2.322921	-9.729379	6.749241	0.117796	26.610318	11.624043	0.000000	2.599246	-3.075226	9.376360	3.767977	0.065764	25.334992	-9.759407	0.000000	0.032895	0.759208	0.106769	0.061090	1.009746	0.113442	0.054044	1.845938	0.113442	0.037596	1.845938	0.093423	0.030547	1.548177	0.086750	0.018796	1.176013	0.080077	0.234969	8.588311	0.593816	0.000000	0.000000	25.406370	-3.554328	1.279555	8.108119	-14.210089	129.935002	4.221620	2.517259	3.779801	-7.466368	14.586511	-2.382818	148.288173	6.392899	6.132066	-2.346673	-7.400079
